<?xml version="1.0" standalone="no"?>
<!DOCTYPE svg PUBLIC "-//W3C//DTD SVG 20010904//EN"
 "http://www.w3.org/TR/2001/REC-SVG-20010904/DTD/svg10.dtd">
<svg version="1.0" xmlns="http://www.w3.org/2000/svg"
 width="500.000000pt" height="500.000000pt" viewBox="0 0 500.000000 500.000000"
 preserveAspectRatio="xMidYMid meet">
<metadata>
Created by potrace 1.14, written by Peter Selinger 2001-2017
</metadata>
<g transform="translate(0.000000,500.000000) scale(0.100000,-0.100000)"
fill="#000000" stroke="none">
<path d="M1817 3893 c-2 -1 -42 -4 -90 -5 -48 -2 -87 -5 -87 -8 0 -3 -18 -4
-40 -4 -22 1 -43 -2 -46 -7 -3 -5 -9 -7 -14 -4 -5 3 -28 1 -52 -5 -24 -6 -50
-12 -59 -14 -54 -13 -99 -30 -99 -38 0 -4 -3 -7 -7 -6 -13 4 -73 -24 -73 -34
0 -5 -4 -7 -9 -4 -4 3 -33 -19 -64 -48 -79 -74 -110 -144 -109 -245 1 -73 5
-92 34 -172 27 -73 94 -172 169 -249 42 -44 82 -80 89 -80 6 0 8 -4 5 -10 -3
-5 -1 -10 6 -10 6 0 32 -15 58 -34 50 -36 191 -106 214 -106 7 0 17 -3 21 -7
3 -4 14 -9 24 -11 44 -9 70 -13 113 -18 l45 -5 32 51 c18 28 32 54 32 58 0 4
23 32 50 61 28 30 50 59 50 63 0 4 5 8 10 8 6 0 22 10 35 23 40 37 54 47 65
47 5 0 10 5 10 11 0 5 5 7 10 4 6 -3 10 -2 10 3 0 9 44 33 69 38 8 1 18 9 22
16 5 7 9 10 9 6 0 -3 21 1 48 9 49 15 68 20 116 29 16 2 33 7 38 10 4 3 8 0 8
-6 0 -6 5 -8 11 -4 6 3 26 8 45 10 25 2 36 -2 44 -16 7 -13 7 -21 0 -25 -8 -5
-8 -11 -1 -19 6 -7 8 -16 4 -19 -3 -4 -7 -30 -9 -59 -5 -90 -11 -131 -24 -178
-19 -71 -71 -200 -80 -200 -4 0 -11 -11 -14 -25 -4 -14 -13 -25 -21 -25 -8 0
-14 -5 -12 -10 3 -15 -95 -100 -115 -100 -10 0 -18 -5 -18 -11 0 -5 -4 -8 -8
-5 -4 2 -14 1 -21 -3 -8 -5 4 -15 36 -29 62 -26 171 -132 164 -157 -2 -4 2
-11 7 -14 9 -6 48 -86 52 -106 1 -5 8 -24 15 -41 16 -38 37 -161 39 -229 1
-27 5 -56 10 -63 4 -7 2 -12 -4 -12 -7 0 -8 -6 -1 -19 8 -14 6 -22 -8 -35 -10
-9 -20 -14 -23 -11 -3 3 -34 8 -69 11 -35 3 -70 6 -76 6 -7 1 -13 6 -13 12 0
6 -4 5 -9 -3 -6 -9 -11 -10 -15 -2 -4 6 -15 11 -25 11 -10 0 -36 8 -57 17 -22
9 -44 17 -49 19 -6 1 -31 16 -57 33 -25 17 -49 31 -52 31 -4 0 -18 10 -31 23
-13 12 -32 29 -42 37 -34 27 -135 153 -151 189 -23 50 -40 60 -87 55 -68 -9
-195 -46 -195 -57 0 -6 -3 -8 -6 -4 -10 9 -149 -65 -201 -108 -7 -5 -26 -21
-44 -35 -57 -46 -138 -134 -165 -180 -10 -16 -22 -30 -26 -30 -4 0 -8 -7 -8
-15 0 -8 -5 -15 -10 -15 -6 0 -9 -3 -8 -7 1 -5 -8 -30 -21 -57 -31 -66 -49
-159 -44 -225 5 -60 44 -155 71 -170 9 -6 13 -11 9 -11 -4 0 3 -10 15 -22 54
-52 134 -98 208 -119 25 -7 50 -14 55 -16 35 -11 161 -32 218 -36 38 -3 71 -8
74 -10 2 -3 18 -1 34 3 16 5 29 5 29 1 0 -4 17 -6 38 -4 20 2 48 3 62 2 74 -4
243 11 257 23 9 7 13 7 13 -1 0 -7 4 -10 9 -7 5 3 26 8 47 11 22 3 46 8 54 11
8 3 26 7 40 10 14 2 36 6 50 9 14 3 36 8 49 11 14 3 29 8 35 12 6 4 13 7 16 8
51 9 80 18 80 23 0 4 8 7 18 8 9 1 35 10 57 19 22 10 42 18 45 19 18 3 70 31
70 38 0 5 3 6 8 4 10 -7 151 65 191 96 14 12 47 32 71 44 8 4 21 13 28 20 8 7
18 11 23 8 5 -4 9 -2 9 2 0 5 30 31 68 58 37 27 71 55 75 62 4 7 13 13 19 13
6 0 21 11 34 25 13 14 26 25 29 25 10 0 276 269 320 324 22 27 45 54 50 60 6
6 23 29 40 51 16 22 37 49 47 59 10 11 20 28 24 38 3 10 10 18 15 18 5 0 9 7
9 15 0 8 5 15 10 15 6 0 10 4 10 10 0 11 62 104 73 108 4 2 5 7 2 12 -2 4 4
18 15 30 11 12 22 31 25 41 4 11 10 19 14 19 17 0 -6 87 -29 110 -6 6 -18 25
-61 100 -18 30 -39 59 -46 63 -7 4 -13 13 -13 19 0 5 -11 23 -25 40 -14 16
-25 36 -25 44 0 9 -4 13 -9 9 -5 -3 -12 3 -15 12 -3 10 -16 29 -28 43 -13 14
-43 50 -68 80 -84 103 -254 280 -269 280 -6 0 -11 7 -11 15 0 8 -4 15 -10 15
-5 0 -26 16 -45 35 -20 19 -51 45 -68 57 -18 12 -41 31 -52 41 -11 10 -67 50
-125 88 -58 38 -110 74 -117 79 -7 6 -25 16 -40 22 -15 7 -30 15 -33 18 -7 8
-178 90 -193 93 -7 1 -14 4 -17 7 -7 7 -72 32 -90 34 -9 1 -21 5 -28 9 -11 7
-92 33 -131 43 -93 21 -220 45 -263 48 -29 3 -53 5 -53 6 0 1 -34 4 -75 6 -41
2 -96 5 -123 7 -26 2 -49 2 -50 0z m1458 -1215 c6 -3 18 -4 27 -3 9 2 22 -3
29 -11 6 -8 16 -14 22 -14 15 0 48 -41 64 -80 19 -42 19 -106 1 -128 -11 -13
-11 -14 0 -8 7 4 1 -10 -15 -32 -15 -22 -30 -38 -32 -36 -3 2 -15 -5 -27 -17
-28 -26 -113 -34 -160 -14 -96 40 -138 143 -99 242 27 67 143 129 190 101z"/>
</g>
</svg>
